<mxfile host="app.diagrams.net" agent="Mozilla/5.0 (Windows NT 10.0; Win64; x64) AppleWebKit/537.36 (KHTML, like Gecko) Chrome/129.0.0.0 Safari/537.36" version="24.7.17">
  <diagram name="Page-1" id="2YBvvXClWsGukQMizWep">
    <mxGraphModel dx="1290" dy="563" grid="1" gridSize="10" guides="1" tooltips="1" connect="1" arrows="1" fold="1" page="1" pageScale="1" pageWidth="850" pageHeight="1100" math="0" shadow="0">
      <root>
        <mxCell id="0" />
        <mxCell id="1" parent="0" />
        <mxCell id="b5BNbCB7NWANwJ87BcGt-43" value="Đăng ký" style="shape=umlFrame;whiteSpace=wrap;html=1;pointerEvents=0;recursiveResize=0;container=1;collapsible=0;width=160;" vertex="1" parent="1">
          <mxGeometry x="90" y="30" width="1040" height="840" as="geometry" />
        </mxCell>
        <mxCell id="b5BNbCB7NWANwJ87BcGt-44" value="&lt;div&gt;&lt;br&gt;&lt;/div&gt;&lt;div&gt;&lt;br&gt;&lt;/div&gt;&lt;div&gt;&lt;br&gt;&lt;/div&gt;&lt;div&gt;&lt;br&gt;&lt;/div&gt;&lt;div&gt;&lt;span style=&quot;background-color: initial;&quot;&gt;:User&lt;/span&gt;&lt;br&gt;&lt;/div&gt;" style="shape=umlLifeline;perimeter=lifelinePerimeter;whiteSpace=wrap;html=1;container=1;dropTarget=0;collapsible=0;recursiveResize=0;outlineConnect=0;portConstraint=eastwest;newEdgeStyle={&quot;curved&quot;:0,&quot;rounded&quot;:0};participant=umlActor;size=40;" vertex="1" parent="b5BNbCB7NWANwJ87BcGt-43">
          <mxGeometry x="40" y="40" width="20" height="800" as="geometry" />
        </mxCell>
        <mxCell id="b5BNbCB7NWANwJ87BcGt-45" value="" style="html=1;points=[[0,0,0,0,5],[0,1,0,0,-5],[1,0,0,0,5],[1,1,0,0,-5]];perimeter=orthogonalPerimeter;outlineConnect=0;targetShapes=umlLifeline;portConstraint=eastwest;newEdgeStyle={&quot;curved&quot;:0,&quot;rounded&quot;:0};" vertex="1" parent="b5BNbCB7NWANwJ87BcGt-44">
          <mxGeometry x="5" y="80" width="10" height="410" as="geometry" />
        </mxCell>
        <mxCell id="b5BNbCB7NWANwJ87BcGt-99" value="" style="html=1;points=[[0,0,0,0,5],[0,1,0,0,-5],[1,0,0,0,5],[1,1,0,0,-5]];perimeter=orthogonalPerimeter;outlineConnect=0;targetShapes=umlLifeline;portConstraint=eastwest;newEdgeStyle={&quot;curved&quot;:0,&quot;rounded&quot;:0};" vertex="1" parent="b5BNbCB7NWANwJ87BcGt-44">
          <mxGeometry x="5" y="510" width="10" height="240" as="geometry" />
        </mxCell>
        <mxCell id="b5BNbCB7NWANwJ87BcGt-46" value="&lt;div&gt;&lt;br&gt;&lt;/div&gt;&lt;div&gt;&lt;br&gt;&lt;/div&gt;&lt;div&gt;&lt;br&gt;&lt;/div&gt;&lt;div&gt;&lt;br&gt;&lt;/div&gt;&lt;div&gt;:Đăng ký&lt;/div&gt;" style="shape=umlLifeline;perimeter=lifelinePerimeter;whiteSpace=wrap;html=1;container=1;dropTarget=0;collapsible=0;recursiveResize=0;outlineConnect=0;portConstraint=eastwest;newEdgeStyle={&quot;curved&quot;:0,&quot;rounded&quot;:0};participant=umlBoundary;" vertex="1" parent="b5BNbCB7NWANwJ87BcGt-43">
          <mxGeometry x="180" y="40" width="70" height="740" as="geometry" />
        </mxCell>
        <mxCell id="b5BNbCB7NWANwJ87BcGt-79" value="" style="html=1;points=[[0,0,0,0,5],[0,1,0,0,-5],[1,0,0,0,5],[1,1,0,0,-5]];perimeter=orthogonalPerimeter;outlineConnect=0;targetShapes=umlLifeline;portConstraint=eastwest;newEdgeStyle={&quot;curved&quot;:0,&quot;rounded&quot;:0};" vertex="1" parent="b5BNbCB7NWANwJ87BcGt-46">
          <mxGeometry x="30" y="255" width="10" height="50" as="geometry" />
        </mxCell>
        <mxCell id="b5BNbCB7NWANwJ87BcGt-91" value="" style="html=1;points=[[0,0,0,0,5],[0,1,0,0,-5],[1,0,0,0,5],[1,1,0,0,-5]];perimeter=orthogonalPerimeter;outlineConnect=0;targetShapes=umlLifeline;portConstraint=eastwest;newEdgeStyle={&quot;curved&quot;:0,&quot;rounded&quot;:0};" vertex="1" parent="b5BNbCB7NWANwJ87BcGt-46">
          <mxGeometry x="30" y="360" width="10" height="130" as="geometry" />
        </mxCell>
        <mxCell id="b5BNbCB7NWANwJ87BcGt-102" value="" style="html=1;points=[[0,0,0,0,5],[0,1,0,0,-5],[1,0,0,0,5],[1,1,0,0,-5]];perimeter=orthogonalPerimeter;outlineConnect=0;targetShapes=umlLifeline;portConstraint=eastwest;newEdgeStyle={&quot;curved&quot;:0,&quot;rounded&quot;:0};" vertex="1" parent="b5BNbCB7NWANwJ87BcGt-46">
          <mxGeometry x="30" y="520" width="10" height="220" as="geometry" />
        </mxCell>
        <mxCell id="b5BNbCB7NWANwJ87BcGt-47" value="&lt;div&gt;&lt;br&gt;&lt;/div&gt;&lt;div&gt;&lt;br&gt;&lt;/div&gt;&lt;div&gt;&lt;br&gt;&lt;/div&gt;&lt;div&gt;&lt;br&gt;&lt;/div&gt;&lt;div&gt;:Hệ thống&lt;/div&gt;" style="shape=umlLifeline;perimeter=lifelinePerimeter;whiteSpace=wrap;html=1;container=1;dropTarget=0;collapsible=0;recursiveResize=0;outlineConnect=0;portConstraint=eastwest;newEdgeStyle={&quot;curved&quot;:0,&quot;rounded&quot;:0};participant=umlControl;" vertex="1" parent="b5BNbCB7NWANwJ87BcGt-43">
          <mxGeometry x="410" y="40" width="70" height="790" as="geometry" />
        </mxCell>
        <mxCell id="b5BNbCB7NWANwJ87BcGt-60" value="" style="html=1;points=[[0,0,0,0,5],[0,1,0,0,-5],[1,0,0,0,5],[1,1,0,0,-5]];perimeter=orthogonalPerimeter;outlineConnect=0;targetShapes=umlLifeline;portConstraint=eastwest;newEdgeStyle={&quot;curved&quot;:0,&quot;rounded&quot;:0};" vertex="1" parent="b5BNbCB7NWANwJ87BcGt-47">
          <mxGeometry x="30" y="160" width="10" height="40" as="geometry" />
        </mxCell>
        <mxCell id="b5BNbCB7NWANwJ87BcGt-78" value="" style="html=1;points=[[0,0,0,0,5],[0,1,0,0,-5],[1,0,0,0,5],[1,1,0,0,-5]];perimeter=orthogonalPerimeter;outlineConnect=0;targetShapes=umlLifeline;portConstraint=eastwest;newEdgeStyle={&quot;curved&quot;:0,&quot;rounded&quot;:0};" vertex="1" parent="b5BNbCB7NWANwJ87BcGt-47">
          <mxGeometry x="30" y="260" width="10" height="40" as="geometry" />
        </mxCell>
        <mxCell id="b5BNbCB7NWANwJ87BcGt-86" value="" style="html=1;points=[[0,0,0,0,5],[0,1,0,0,-5],[1,0,0,0,5],[1,1,0,0,-5]];perimeter=orthogonalPerimeter;outlineConnect=0;targetShapes=umlLifeline;portConstraint=eastwest;newEdgeStyle={&quot;curved&quot;:0,&quot;rounded&quot;:0};" vertex="1" parent="b5BNbCB7NWANwJ87BcGt-47">
          <mxGeometry x="30" y="340" width="10" height="150" as="geometry" />
        </mxCell>
        <mxCell id="b5BNbCB7NWANwJ87BcGt-105" value="" style="html=1;points=[[0,0,0,0,5],[0,1,0,0,-5],[1,0,0,0,5],[1,1,0,0,-5]];perimeter=orthogonalPerimeter;outlineConnect=0;targetShapes=umlLifeline;portConstraint=eastwest;newEdgeStyle={&quot;curved&quot;:0,&quot;rounded&quot;:0};" vertex="1" parent="b5BNbCB7NWANwJ87BcGt-47">
          <mxGeometry x="30" y="560" width="10" height="150" as="geometry" />
        </mxCell>
        <mxCell id="b5BNbCB7NWANwJ87BcGt-48" value="&lt;div&gt;&lt;br&gt;&lt;/div&gt;&lt;div&gt;&lt;br&gt;&lt;/div&gt;&lt;div&gt;&lt;br&gt;&lt;/div&gt;&lt;div&gt;&lt;br&gt;&lt;/div&gt;&lt;div&gt;:User&lt;/div&gt;" style="shape=umlLifeline;perimeter=lifelinePerimeter;whiteSpace=wrap;html=1;container=1;dropTarget=0;collapsible=0;recursiveResize=0;outlineConnect=0;portConstraint=eastwest;newEdgeStyle={&quot;curved&quot;:0,&quot;rounded&quot;:0};participant=umlEntity;" vertex="1" parent="b5BNbCB7NWANwJ87BcGt-43">
          <mxGeometry x="730" y="40" width="40" height="800" as="geometry" />
        </mxCell>
        <mxCell id="b5BNbCB7NWANwJ87BcGt-49" value="" style="html=1;points=[[0,0,0,0,5],[0,1,0,0,-5],[1,0,0,0,5],[1,1,0,0,-5]];perimeter=orthogonalPerimeter;outlineConnect=0;targetShapes=umlLifeline;portConstraint=eastwest;newEdgeStyle={&quot;curved&quot;:0,&quot;rounded&quot;:0};" vertex="1" parent="b5BNbCB7NWANwJ87BcGt-48">
          <mxGeometry x="15" y="135" width="10" height="365" as="geometry" />
        </mxCell>
        <mxCell id="b5BNbCB7NWANwJ87BcGt-111" value="" style="endArrow=open;endFill=1;endSize=12;html=1;rounded=0;" edge="1" parent="b5BNbCB7NWANwJ87BcGt-48" source="b5BNbCB7NWANwJ87BcGt-49" target="b5BNbCB7NWANwJ87BcGt-49">
          <mxGeometry width="160" relative="1" as="geometry">
            <mxPoint x="-36" y="366" as="sourcePoint" />
            <mxPoint x="-36" y="396" as="targetPoint" />
            <Array as="points">
              <mxPoint x="-11" y="366" />
              <mxPoint x="-11" y="396" />
            </Array>
          </mxGeometry>
        </mxCell>
        <mxCell id="b5BNbCB7NWANwJ87BcGt-112" value="Tạo user với is_active=False" style="edgeLabel;html=1;align=center;verticalAlign=middle;resizable=0;points=[];" vertex="1" connectable="0" parent="b5BNbCB7NWANwJ87BcGt-111">
          <mxGeometry x="-0.1897" relative="1" as="geometry">
            <mxPoint x="11" y="7" as="offset" />
          </mxGeometry>
        </mxCell>
        <mxCell id="b5BNbCB7NWANwJ87BcGt-113" value="" style="html=1;points=[[0,0,0,0,5],[0,1,0,0,-5],[1,0,0,0,5],[1,1,0,0,-5]];perimeter=orthogonalPerimeter;outlineConnect=0;targetShapes=umlLifeline;portConstraint=eastwest;newEdgeStyle={&quot;curved&quot;:0,&quot;rounded&quot;:0};" vertex="1" parent="b5BNbCB7NWANwJ87BcGt-48">
          <mxGeometry x="15" y="600" width="10" height="140" as="geometry" />
        </mxCell>
        <mxCell id="b5BNbCB7NWANwJ87BcGt-50" value="&lt;div&gt;&lt;br&gt;&lt;/div&gt;&lt;div&gt;&lt;br&gt;&lt;/div&gt;&lt;div&gt;&lt;br&gt;&lt;/div&gt;&lt;div&gt;&lt;br&gt;&lt;/div&gt;&lt;div&gt;:EmailVerificationCode&lt;/div&gt;" style="shape=umlLifeline;perimeter=lifelinePerimeter;whiteSpace=wrap;html=1;container=1;dropTarget=0;collapsible=0;recursiveResize=0;outlineConnect=0;portConstraint=eastwest;newEdgeStyle={&quot;curved&quot;:0,&quot;rounded&quot;:0};participant=umlEntity;" vertex="1" parent="b5BNbCB7NWANwJ87BcGt-43">
          <mxGeometry x="920" y="40" width="40" height="800" as="geometry" />
        </mxCell>
        <mxCell id="b5BNbCB7NWANwJ87BcGt-51" value="" style="html=1;points=[[0,0,0,0,5],[0,1,0,0,-5],[1,0,0,0,5],[1,1,0,0,-5]];perimeter=orthogonalPerimeter;outlineConnect=0;targetShapes=umlLifeline;portConstraint=eastwest;newEdgeStyle={&quot;curved&quot;:0,&quot;rounded&quot;:0};" vertex="1" parent="b5BNbCB7NWANwJ87BcGt-50">
          <mxGeometry x="15" y="110" width="10" height="360" as="geometry" />
        </mxCell>
        <mxCell id="b5BNbCB7NWANwJ87BcGt-52" value="" style="html=1;points=[[0,0,0,0,5],[0,1,0,0,-5],[1,0,0,0,5],[1,1,0,0,-5]];perimeter=orthogonalPerimeter;outlineConnect=0;targetShapes=umlLifeline;portConstraint=eastwest;newEdgeStyle={&quot;curved&quot;:0,&quot;rounded&quot;:0};" vertex="1" parent="b5BNbCB7NWANwJ87BcGt-43">
          <mxGeometry x="210" y="120" width="10" height="50" as="geometry" />
        </mxCell>
        <mxCell id="b5BNbCB7NWANwJ87BcGt-53" value="" style="endArrow=open;endFill=1;endSize=12;html=1;rounded=0;" edge="1" parent="b5BNbCB7NWANwJ87BcGt-43" source="b5BNbCB7NWANwJ87BcGt-45" target="b5BNbCB7NWANwJ87BcGt-52">
          <mxGeometry width="160" relative="1" as="geometry">
            <mxPoint x="270" y="180" as="sourcePoint" />
            <mxPoint x="430" y="180" as="targetPoint" />
            <Array as="points">
              <mxPoint x="130" y="130" />
            </Array>
          </mxGeometry>
        </mxCell>
        <mxCell id="b5BNbCB7NWANwJ87BcGt-54" value="1. Đăng ký" style="edgeLabel;html=1;align=center;verticalAlign=middle;resizable=0;points=[];" vertex="1" connectable="0" parent="b5BNbCB7NWANwJ87BcGt-53">
          <mxGeometry x="-0.1897" relative="1" as="geometry">
            <mxPoint y="-10" as="offset" />
          </mxGeometry>
        </mxCell>
        <mxCell id="b5BNbCB7NWANwJ87BcGt-55" value="" style="endArrow=open;endFill=1;endSize=12;html=1;rounded=0;" edge="1" parent="b5BNbCB7NWANwJ87BcGt-43" source="b5BNbCB7NWANwJ87BcGt-52" target="b5BNbCB7NWANwJ87BcGt-45">
          <mxGeometry width="160" relative="1" as="geometry">
            <mxPoint x="65" y="140" as="sourcePoint" />
            <mxPoint x="220" y="140" as="targetPoint" />
            <Array as="points">
              <mxPoint x="140" y="160" />
            </Array>
          </mxGeometry>
        </mxCell>
        <mxCell id="b5BNbCB7NWANwJ87BcGt-56" value="2: Hiển thị form đăng ký" style="edgeLabel;html=1;align=center;verticalAlign=middle;resizable=0;points=[];" vertex="1" connectable="0" parent="b5BNbCB7NWANwJ87BcGt-55">
          <mxGeometry x="-0.1897" relative="1" as="geometry">
            <mxPoint x="-7" y="-10" as="offset" />
          </mxGeometry>
        </mxCell>
        <mxCell id="b5BNbCB7NWANwJ87BcGt-57" value="" style="html=1;points=[[0,0,0,0,5],[0,1,0,0,-5],[1,0,0,0,5],[1,1,0,0,-5]];perimeter=orthogonalPerimeter;outlineConnect=0;targetShapes=umlLifeline;portConstraint=eastwest;newEdgeStyle={&quot;curved&quot;:0,&quot;rounded&quot;:0};" vertex="1" parent="b5BNbCB7NWANwJ87BcGt-43">
          <mxGeometry x="210" y="190" width="10" height="50" as="geometry" />
        </mxCell>
        <mxCell id="b5BNbCB7NWANwJ87BcGt-58" value="" style="endArrow=open;endFill=1;endSize=12;html=1;rounded=0;" edge="1" parent="b5BNbCB7NWANwJ87BcGt-43">
          <mxGeometry width="160" relative="1" as="geometry">
            <mxPoint x="55" y="204.5" as="sourcePoint" />
            <mxPoint x="210" y="204.5" as="targetPoint" />
          </mxGeometry>
        </mxCell>
        <mxCell id="b5BNbCB7NWANwJ87BcGt-59" value="3: điền form đăng ký" style="edgeLabel;html=1;align=center;verticalAlign=middle;resizable=0;points=[];" vertex="1" connectable="0" parent="b5BNbCB7NWANwJ87BcGt-58">
          <mxGeometry x="-0.1897" relative="1" as="geometry">
            <mxPoint x="12" y="-10" as="offset" />
          </mxGeometry>
        </mxCell>
        <mxCell id="b5BNbCB7NWANwJ87BcGt-61" value="" style="endArrow=open;endFill=1;endSize=12;html=1;rounded=0;" edge="1" parent="b5BNbCB7NWANwJ87BcGt-43" source="b5BNbCB7NWANwJ87BcGt-57" target="b5BNbCB7NWANwJ87BcGt-60">
          <mxGeometry width="160" relative="1" as="geometry">
            <mxPoint x="65" y="190" as="sourcePoint" />
            <mxPoint x="220" y="190" as="targetPoint" />
          </mxGeometry>
        </mxCell>
        <mxCell id="b5BNbCB7NWANwJ87BcGt-62" value="4 Gửi yêu cầu đăng ký" style="edgeLabel;html=1;align=center;verticalAlign=middle;resizable=0;points=[];" vertex="1" connectable="0" parent="b5BNbCB7NWANwJ87BcGt-61">
          <mxGeometry x="-0.1897" relative="1" as="geometry">
            <mxPoint x="12" y="-10" as="offset" />
          </mxGeometry>
        </mxCell>
        <mxCell id="b5BNbCB7NWANwJ87BcGt-63" value="" style="endArrow=open;endFill=1;endSize=12;html=1;rounded=0;" edge="1" parent="b5BNbCB7NWANwJ87BcGt-43" source="b5BNbCB7NWANwJ87BcGt-60" target="b5BNbCB7NWANwJ87BcGt-49">
          <mxGeometry width="160" relative="1" as="geometry">
            <mxPoint x="230" y="225" as="sourcePoint" />
            <mxPoint x="380" y="225" as="targetPoint" />
            <Array as="points">
              <mxPoint x="450" y="230" />
            </Array>
          </mxGeometry>
        </mxCell>
        <mxCell id="b5BNbCB7NWANwJ87BcGt-64" value="4 Xử lý yêu cầu đăng ký" style="edgeLabel;html=1;align=center;verticalAlign=middle;resizable=0;points=[];" vertex="1" connectable="0" parent="b5BNbCB7NWANwJ87BcGt-63">
          <mxGeometry x="-0.1897" relative="1" as="geometry">
            <mxPoint x="12" y="-10" as="offset" />
          </mxGeometry>
        </mxCell>
        <mxCell id="b5BNbCB7NWANwJ87BcGt-74" value="alt" style="shape=umlFrame;whiteSpace=wrap;html=1;pointerEvents=0;recursiveResize=0;container=1;collapsible=0;width=50;" vertex="1" parent="b5BNbCB7NWANwJ87BcGt-43">
          <mxGeometry x="390" y="260" width="600" height="290" as="geometry" />
        </mxCell>
        <mxCell id="b5BNbCB7NWANwJ87BcGt-75" value="[Email hoặc user name tồn tại]" style="text;align=center;html=1;" vertex="1" parent="b5BNbCB7NWANwJ87BcGt-74">
          <mxGeometry width="100" height="20" relative="1" as="geometry">
            <mxPoint x="110" as="offset" />
          </mxGeometry>
        </mxCell>
        <mxCell id="b5BNbCB7NWANwJ87BcGt-76" value="[Email và user name không tồn tại]" style="text;align=center;html=1;" vertex="1" parent="b5BNbCB7NWANwJ87BcGt-74">
          <mxGeometry x="110" y="110" width="100" height="20" as="geometry" />
        </mxCell>
        <mxCell id="b5BNbCB7NWANwJ87BcGt-87" value="" style="endArrow=open;endFill=1;endSize=12;html=1;rounded=0;" edge="1" parent="b5BNbCB7NWANwJ87BcGt-74">
          <mxGeometry width="160" relative="1" as="geometry">
            <mxPoint x="355" y="210" as="sourcePoint" />
            <mxPoint x="60" y="210" as="targetPoint" />
            <Array as="points">
              <mxPoint x="210" y="210" />
            </Array>
          </mxGeometry>
        </mxCell>
        <mxCell id="b5BNbCB7NWANwJ87BcGt-88" value="Thông báo đã gửi mail kích hoạt" style="edgeLabel;html=1;align=center;verticalAlign=middle;resizable=0;points=[];" vertex="1" connectable="0" parent="b5BNbCB7NWANwJ87BcGt-87">
          <mxGeometry x="-0.1897" relative="1" as="geometry">
            <mxPoint x="12" y="-10" as="offset" />
          </mxGeometry>
        </mxCell>
        <mxCell id="b5BNbCB7NWANwJ87BcGt-98" value="Trả về thống báo thành công" style="endArrow=open;startArrow=none;endFill=0;startFill=0;endSize=8;html=1;verticalAlign=bottom;dashed=1;labelBackgroundColor=none;rounded=0;" edge="1" parent="b5BNbCB7NWANwJ87BcGt-74">
          <mxGeometry width="160" relative="1" as="geometry">
            <mxPoint x="550" y="140" as="sourcePoint" />
            <mxPoint x="370" y="140" as="targetPoint" />
          </mxGeometry>
        </mxCell>
        <mxCell id="b5BNbCB7NWANwJ87BcGt-77" value="" style="endArrow=none;startArrow=none;endFill=0;startFill=0;endSize=8;html=1;verticalAlign=bottom;dashed=1;labelBackgroundColor=none;dashPattern=10 10;rounded=0;entryX=1.005;entryY=0.314;entryDx=0;entryDy=0;entryPerimeter=0;exitX=-0.007;exitY=0.489;exitDx=0;exitDy=0;exitPerimeter=0;" edge="1" parent="b5BNbCB7NWANwJ87BcGt-74" target="b5BNbCB7NWANwJ87BcGt-74">
          <mxGeometry width="160" relative="1" as="geometry">
            <mxPoint x="2.220446049250313e-15" y="89.99999999999994" as="sourcePoint" />
            <mxPoint x="433.4399999999999" y="90.87000000000006" as="targetPoint" />
          </mxGeometry>
        </mxCell>
        <mxCell id="b5BNbCB7NWANwJ87BcGt-80" value="" style="endArrow=open;endFill=1;endSize=12;html=1;rounded=0;" edge="1" parent="b5BNbCB7NWANwJ87BcGt-43" source="b5BNbCB7NWANwJ87BcGt-78" target="b5BNbCB7NWANwJ87BcGt-79">
          <mxGeometry width="160" relative="1" as="geometry">
            <mxPoint x="230" y="225" as="sourcePoint" />
            <mxPoint x="450" y="225" as="targetPoint" />
          </mxGeometry>
        </mxCell>
        <mxCell id="b5BNbCB7NWANwJ87BcGt-81" value="Gủi thống báo lỗi" style="edgeLabel;html=1;align=center;verticalAlign=middle;resizable=0;points=[];" vertex="1" connectable="0" parent="b5BNbCB7NWANwJ87BcGt-80">
          <mxGeometry x="-0.1897" relative="1" as="geometry">
            <mxPoint x="12" y="-10" as="offset" />
          </mxGeometry>
        </mxCell>
        <mxCell id="b5BNbCB7NWANwJ87BcGt-82" value="" style="endArrow=open;endFill=1;endSize=12;html=1;rounded=0;" edge="1" parent="b5BNbCB7NWANwJ87BcGt-43" source="b5BNbCB7NWANwJ87BcGt-79" target="b5BNbCB7NWANwJ87BcGt-45">
          <mxGeometry width="160" relative="1" as="geometry">
            <mxPoint x="450" y="330" as="sourcePoint" />
            <mxPoint x="230" y="330" as="targetPoint" />
          </mxGeometry>
        </mxCell>
        <mxCell id="b5BNbCB7NWANwJ87BcGt-83" value="Hiển thị thông báo lỗi" style="edgeLabel;html=1;align=center;verticalAlign=middle;resizable=0;points=[];" vertex="1" connectable="0" parent="b5BNbCB7NWANwJ87BcGt-82">
          <mxGeometry x="-0.1897" relative="1" as="geometry">
            <mxPoint x="12" y="-10" as="offset" />
          </mxGeometry>
        </mxCell>
        <mxCell id="b5BNbCB7NWANwJ87BcGt-84" value="" style="endArrow=open;endFill=1;endSize=12;html=1;rounded=0;entryX=1;entryY=0;entryDx=0;entryDy=5;entryPerimeter=0;" edge="1" parent="b5BNbCB7NWANwJ87BcGt-43" source="b5BNbCB7NWANwJ87BcGt-49" target="b5BNbCB7NWANwJ87BcGt-78">
          <mxGeometry width="160" relative="1" as="geometry">
            <mxPoint x="450" y="330" as="sourcePoint" />
            <mxPoint x="230" y="330" as="targetPoint" />
          </mxGeometry>
        </mxCell>
        <mxCell id="b5BNbCB7NWANwJ87BcGt-85" value="Trả lỗi" style="edgeLabel;html=1;align=center;verticalAlign=middle;resizable=0;points=[];" vertex="1" connectable="0" parent="b5BNbCB7NWANwJ87BcGt-84">
          <mxGeometry x="-0.1897" relative="1" as="geometry">
            <mxPoint x="12" y="-10" as="offset" />
          </mxGeometry>
        </mxCell>
        <mxCell id="b5BNbCB7NWANwJ87BcGt-92" value="" style="endArrow=open;endFill=1;endSize=12;html=1;rounded=0;" edge="1" parent="b5BNbCB7NWANwJ87BcGt-43">
          <mxGeometry width="160" relative="1" as="geometry">
            <mxPoint x="210" y="519" as="sourcePoint" />
            <mxPoint x="55" y="519" as="targetPoint" />
          </mxGeometry>
        </mxCell>
        <mxCell id="b5BNbCB7NWANwJ87BcGt-93" value="Hiển thị thông báo đã gửi mail kích hoạt" style="edgeLabel;html=1;align=center;verticalAlign=middle;resizable=0;points=[];" vertex="1" connectable="0" parent="b5BNbCB7NWANwJ87BcGt-92">
          <mxGeometry x="-0.1897" relative="1" as="geometry">
            <mxPoint x="12" y="-10" as="offset" />
          </mxGeometry>
        </mxCell>
        <mxCell id="b5BNbCB7NWANwJ87BcGt-96" value="" style="endArrow=open;endFill=1;endSize=12;html=1;rounded=0;" edge="1" parent="b5BNbCB7NWANwJ87BcGt-43">
          <mxGeometry width="160" relative="1" as="geometry">
            <mxPoint x="755" y="380" as="sourcePoint" />
            <mxPoint x="939.5" y="380" as="targetPoint" />
          </mxGeometry>
        </mxCell>
        <mxCell id="b5BNbCB7NWANwJ87BcGt-97" value="Gửi yêu cầu tạo email verification" style="edgeLabel;html=1;align=center;verticalAlign=middle;resizable=0;points=[];" vertex="1" connectable="0" parent="b5BNbCB7NWANwJ87BcGt-96">
          <mxGeometry x="-0.1897" relative="1" as="geometry">
            <mxPoint x="12" y="-10" as="offset" />
          </mxGeometry>
        </mxCell>
        <mxCell id="b5BNbCB7NWANwJ87BcGt-100" value="" style="endArrow=open;endFill=1;endSize=12;html=1;rounded=0;" edge="1" parent="b5BNbCB7NWANwJ87BcGt-43">
          <mxGeometry width="160" relative="1" as="geometry">
            <mxPoint x="55" y="630" as="sourcePoint" />
            <mxPoint x="210" y="630" as="targetPoint" />
          </mxGeometry>
        </mxCell>
        <mxCell id="b5BNbCB7NWANwJ87BcGt-101" value="Người dùng ấn vào link kích hoạt" style="edgeLabel;html=1;align=center;verticalAlign=middle;resizable=0;points=[];" vertex="1" connectable="0" parent="b5BNbCB7NWANwJ87BcGt-100">
          <mxGeometry x="-0.1897" relative="1" as="geometry">
            <mxPoint x="12" y="-10" as="offset" />
          </mxGeometry>
        </mxCell>
        <mxCell id="b5BNbCB7NWANwJ87BcGt-103" value="" style="endArrow=open;endFill=1;endSize=12;html=1;rounded=0;" edge="1" parent="b5BNbCB7NWANwJ87BcGt-43" source="b5BNbCB7NWANwJ87BcGt-102" target="b5BNbCB7NWANwJ87BcGt-105">
          <mxGeometry width="160" relative="1" as="geometry">
            <mxPoint x="65" y="640" as="sourcePoint" />
            <mxPoint x="220" y="640" as="targetPoint" />
            <Array as="points">
              <mxPoint x="340" y="660" />
            </Array>
          </mxGeometry>
        </mxCell>
        <mxCell id="b5BNbCB7NWANwJ87BcGt-104" value="Gửi yêu cầu kích hoạt tài khoản" style="edgeLabel;html=1;align=center;verticalAlign=middle;resizable=0;points=[];" vertex="1" connectable="0" parent="b5BNbCB7NWANwJ87BcGt-103">
          <mxGeometry x="-0.1897" relative="1" as="geometry">
            <mxPoint x="12" y="-10" as="offset" />
          </mxGeometry>
        </mxCell>
        <mxCell id="b5BNbCB7NWANwJ87BcGt-109" value="" style="endArrow=open;endFill=1;endSize=12;html=1;rounded=0;" edge="1" parent="b5BNbCB7NWANwJ87BcGt-43" source="b5BNbCB7NWANwJ87BcGt-105" target="b5BNbCB7NWANwJ87BcGt-113">
          <mxGeometry width="160" relative="1" as="geometry">
            <mxPoint x="450" y="330" as="sourcePoint" />
            <mxPoint x="230" y="330" as="targetPoint" />
          </mxGeometry>
        </mxCell>
        <mxCell id="b5BNbCB7NWANwJ87BcGt-110" value="Xử lý kích hoạt tài khoản" style="edgeLabel;html=1;align=center;verticalAlign=middle;resizable=0;points=[];" vertex="1" connectable="0" parent="b5BNbCB7NWANwJ87BcGt-109">
          <mxGeometry x="-0.1897" relative="1" as="geometry">
            <mxPoint x="12" y="-10" as="offset" />
          </mxGeometry>
        </mxCell>
        <mxCell id="b5BNbCB7NWANwJ87BcGt-89" value="" style="endArrow=open;endFill=1;endSize=12;html=1;rounded=0;" edge="1" parent="b5BNbCB7NWANwJ87BcGt-43">
          <mxGeometry width="160" relative="1" as="geometry">
            <mxPoint x="440" y="490" as="sourcePoint" />
            <mxPoint x="220" y="490" as="targetPoint" />
          </mxGeometry>
        </mxCell>
        <mxCell id="b5BNbCB7NWANwJ87BcGt-90" value="Thông báo đã gửi mail kích hoạt" style="edgeLabel;html=1;align=center;verticalAlign=middle;resizable=0;points=[];" vertex="1" connectable="0" parent="b5BNbCB7NWANwJ87BcGt-89">
          <mxGeometry x="-0.1897" relative="1" as="geometry">
            <mxPoint x="12" y="-10" as="offset" />
          </mxGeometry>
        </mxCell>
        <mxCell id="b5BNbCB7NWANwJ87BcGt-114" value="Trả về thống báo thành công" style="endArrow=open;startArrow=none;endFill=0;startFill=0;endSize=8;html=1;verticalAlign=bottom;dashed=1;labelBackgroundColor=none;rounded=0;" edge="1" parent="b5BNbCB7NWANwJ87BcGt-43" source="b5BNbCB7NWANwJ87BcGt-113" target="b5BNbCB7NWANwJ87BcGt-105">
          <mxGeometry width="160" relative="1" as="geometry">
            <mxPoint x="950" y="410" as="sourcePoint" />
            <mxPoint x="770" y="410" as="targetPoint" />
          </mxGeometry>
        </mxCell>
        <mxCell id="b5BNbCB7NWANwJ87BcGt-115" value="" style="endArrow=open;endFill=1;endSize=12;html=1;rounded=0;" edge="1" parent="b5BNbCB7NWANwJ87BcGt-43">
          <mxGeometry width="160" relative="1" as="geometry">
            <mxPoint x="446" y="730" as="sourcePoint" />
            <mxPoint x="220" y="730" as="targetPoint" />
            <Array as="points">
              <mxPoint x="335.5" y="730" />
            </Array>
          </mxGeometry>
        </mxCell>
        <mxCell id="b5BNbCB7NWANwJ87BcGt-116" value="Thông báo tạo thành công" style="edgeLabel;html=1;align=center;verticalAlign=middle;resizable=0;points=[];" vertex="1" connectable="0" parent="b5BNbCB7NWANwJ87BcGt-115">
          <mxGeometry x="-0.1897" relative="1" as="geometry">
            <mxPoint x="12" y="-10" as="offset" />
          </mxGeometry>
        </mxCell>
        <mxCell id="b5BNbCB7NWANwJ87BcGt-121" value="" style="endArrow=open;endFill=1;endSize=12;html=1;rounded=0;" edge="1" parent="b5BNbCB7NWANwJ87BcGt-43">
          <mxGeometry width="160" relative="1" as="geometry">
            <mxPoint x="210" y="760" as="sourcePoint" />
            <mxPoint x="55" y="760" as="targetPoint" />
          </mxGeometry>
        </mxCell>
        <mxCell id="b5BNbCB7NWANwJ87BcGt-122" value="Trả về trang đăng nhập" style="edgeLabel;html=1;align=center;verticalAlign=middle;resizable=0;points=[];" vertex="1" connectable="0" parent="b5BNbCB7NWANwJ87BcGt-121">
          <mxGeometry x="-0.1897" relative="1" as="geometry">
            <mxPoint x="12" y="-10" as="offset" />
          </mxGeometry>
        </mxCell>
      </root>
    </mxGraphModel>
  </diagram>
</mxfile>
